# xmcd
# 
# Track frame offsets:
#     150
#     16872
#     33597
#     48119
# 
# Disc length: 973
# 
# Revision: 3
# Processed by: cddbd v1.5.2PL0 Copyright (c) Steve Scherf et al.
# Submitted via: fre:ac v1.0.31
# 
DISCID=2403cb04
DTITLE=Olaf Henning - Ich bin nicht mehr Dein Clown
DYEAR=1998
DGENRE=Folk
TTITLE0=Ich bin nicht mehr Dein Clown (Original Version)
TTITLE1=Ich bin nicht mehr Dein Clown (Manegen Remix)
TTITLE2=Ich bin nicht mehr Dein Clown (Spezial-DJ-Mix)
TTITLE3=Ich bin nicht mehr Dein Clown (Playa-Party-Mix)
EXTD=YEAR: 1998 ID3G:  80
EXTT0=
EXTT1=
EXTT2=
EXTT3=
PLAYORDER=
